<?xml version="1.0" standalone="no"?>
<!DOCTYPE svg PUBLIC "-//W3C//DTD SVG 20010904//EN"
 "http://www.w3.org/TR/2001/REC-SVG-20010904/DTD/svg10.dtd">
<svg version="1.0" xmlns="http://www.w3.org/2000/svg"
 width="701.000000pt" height="111.000000pt" viewBox="0 0 701.000000 111.000000"
 preserveAspectRatio="xMidYMid meet">

<g transform="translate(0.000000,111.000000) scale(0.100000,-0.100000)"
fill="#000000" stroke="none">
<path d="M5165 1094 c-11 -2 -45 -9 -75 -15 -94 -18 -213 -82 -283 -152 -107
-106 -147 -210 -147 -377 1 -114 11 -164 52 -247 98 -200 345 -318 621 -299
352 24 570 233 571 546 1 215 -101 383 -288 476 -39 19 -96 41 -126 50 -53 15
-284 28 -325 18z m247 -274 c122 -37 188 -120 196 -246 9 -134 -45 -227 -160
-280 -56 -25 -74 -28 -168 -29 -99 0 -109 2 -172 33 -108 53 -158 133 -158
253 0 175 127 287 326 288 45 1 96 -6 136 -19z"/>
<path d="M10 550 l0 -530 135 0 135 0 2 397 3 398 172 -395 171 -395 148 0
148 0 170 395 171 395 3 -397 2 -398 135 0 135 0 0 530 0 530 -222 0 -223 -1
-156 -377 c-85 -207 -158 -377 -163 -377 -4 0 -78 170 -164 377 l-157 378
-222 0 -223 0 0 -530z"/>
<path d="M1742 553 l3 -528 143 -3 142 -3 0 531 0 530 -145 0 -145 0 2 -527z"/>
<path d="M2157 1068 c6 -7 97 -118 203 -247 106 -129 193 -240 194 -247 0 -6
-96 -130 -214 -275 -118 -144 -216 -266 -218 -271 -2 -4 75 -8 171 -8 l174 0
134 174 c74 96 136 175 139 175 3 1 66 -78 140 -174 l134 -175 173 0 c95 0
173 4 173 8 0 4 -95 125 -211 267 -116 143 -213 265 -216 272 -4 10 74 108
345 436 l64 77 -180 0 -179 0 -114 -150 c-63 -82 -117 -150 -121 -150 -3 0
-58 68 -122 150 l-116 150 -181 0 c-144 0 -179 -3 -172 -12z"/>
<path d="M3361 1073 c0 -5 109 -242 243 -528 l242 -520 162 -3 c146 -2 163 -1
172 15 18 30 480 1026 480 1035 0 5 -68 7 -151 6 l-152 -3 -170 -388 c-94
-213 -173 -384 -177 -380 -4 4 -83 180 -175 391 l-169 382 -153 0 c-84 0 -153
-3 -152 -7z"/>
<path d="M6060 550 l0 -530 470 0 470 0 0 130 0 130 -325 0 -325 0 0 400 0
400 -145 0 -145 0 0 -530z"/>
</g>
</svg>
