<?xml version="1.0" standalone="no"?>
<!DOCTYPE svg PUBLIC "-//W3C//DTD SVG 20010904//EN"
 "http://www.w3.org/TR/2001/REC-SVG-20010904/DTD/svg10.dtd">
<svg version="1.0" xmlns="http://www.w3.org/2000/svg"
 width="1917.000000pt" height="301.000000pt" viewBox="0 0 1917.000000 301.000000"
 preserveAspectRatio="xMidYMid meet">

<g transform="translate(0.000000,301.000000) scale(0.100000,-0.100000)"
fill="#000000" stroke="none">
<path d="M14260 3003 c-233 -22 -364 -48 -527 -104 -528 -182 -871 -563 -975
-1081 -30 -149 -32 -462 -5 -603 61 -311 191 -552 410 -762 240 -229 554 -372
943 -429 145 -22 504 -25 639 -6 539 76 945 311 1190 690 151 235 218 479 218
797 0 269 -39 448 -143 662 -263 539 -849 850 -1585 841 -71 0 -146 -3 -165
-5z m340 -713 c254 -31 465 -135 585 -288 61 -77 109 -172 137 -267 33 -115
33 -344 0 -458 -68 -239 -229 -409 -468 -496 -271 -99 -637 -89 -882 25 -255
117 -400 319 -432 602 -43 372 136 681 472 815 164 66 387 91 588 67z"/>
<path d="M0 1505 l0 -1445 380 0 380 0 2 1082 3 1082 470 -1082 470 -1082 404
3 404 2 471 1090 471 1090 3 -1093 2 -1092 378 2 377 3 3 1443 2 1442 -617 0
-618 0 -435 -1050 c-239 -578 -437 -1050 -440 -1050 -3 0 -201 472 -442 1048
l-436 1047 -616 3 -616 2 0 -1445z"/>
<path d="M4760 1505 l0 -1445 395 0 395 0 0 1445 0 1445 -395 0 -395 0 0
-1445z"/>
<path d="M5870 2945 c0 -2 255 -313 566 -690 311 -378 564 -692 561 -698 -3
-7 -275 -342 -605 -745 -331 -402 -604 -737 -607 -742 -4 -7 160 -10 477 -10
l483 0 369 475 c203 261 372 475 376 475 4 0 172 -214 374 -475 l368 -475 490
0 490 0 -34 43 c-19 23 -290 357 -603 742 -313 385 -569 707 -569 717 -1 9
249 321 554 693 305 372 557 681 558 686 2 6 -186 8 -484 7 l-489 -3 -313
-410 c-173 -225 -317 -411 -322 -413 -4 -2 -153 184 -330 413 l-321 415 -495
0 c-272 0 -494 -2 -494 -5z"/>
<path d="M9183 2933 c5 -18 1290 -2780 1321 -2841 l17 -32 448 0 448 0 10 23
c104 220 1326 2846 1330 2855 4 10 -80 12 -417 10 l-423 -3 -467 -1063 c-257
-584 -469 -1065 -472 -1067 -3 -3 -218 476 -479 1065 l-474 1070 -424 0 c-398
0 -423 -1 -418 -17z"/>
<path d="M16570 1505 l0 -1445 1295 0 1295 0 0 355 0 355 -897 2 -898 3 -3
1088 -2 1087 -395 0 -395 0 0 -1445z"/>
</g>
</svg>
