<?xml version="1.0" standalone="no"?>
<!DOCTYPE svg PUBLIC "-//W3C//DTD SVG 20010904//EN"
 "http://www.w3.org/TR/2001/REC-SVG-20010904/DTD/svg10.dtd">
<svg version="1.0" xmlns="http://www.w3.org/2000/svg"
 width="351.000000pt" height="55.000000pt" viewBox="0 0 351.000000 55.000000"
 preserveAspectRatio="xMidYMid meet">

<g transform="translate(0.000000,55.000000) scale(0.100000,-0.100000)"
fill="#000000" stroke="none">
<path d="M2547 540 c-86 -22 -151 -72 -190 -145 -31 -57 -31 -183 0 -240 49
-91 137 -143 257 -152 198 -15 339 98 339 272 0 115 -56 200 -162 248 -51 22
-185 32 -244 17z m202 -147 c60 -44 77 -137 36 -199 -22 -33 -89 -64 -143 -64
-96 0 -162 58 -162 142 0 100 65 153 179 145 41 -3 73 -12 90 -24z"/>
<path d="M10 275 l0 -265 65 0 65 0 0 197 c0 108 3 193 6 190 4 -4 44 -91 89
-194 l81 -188 75 -3 74 -2 85 197 85 198 3 -198 2 -197 65 0 65 0 0 265 0 265
-109 0 -109 0 -41 -97 c-22 -54 -58 -140 -80 -192 -21 -51 -41 -88 -45 -82 -4
5 -40 90 -81 188 l-74 178 -110 3 -111 3 0 -266z"/>
<path d="M870 275 l0 -265 75 0 75 0 0 265 0 265 -75 0 -75 0 0 -265z"/>
<path d="M1087 528 c6 -7 52 -64 103 -126 68 -83 91 -118 84 -127 -5 -8 -53
-67 -106 -133 -54 -65 -98 -122 -98 -126 0 -3 38 -6 84 -6 l83 0 64 85 c35 46
67 85 71 85 3 0 36 -38 73 -85 l66 -85 85 0 c46 0 84 3 84 6 0 3 -47 64 -105
134 -58 71 -105 132 -105 136 0 3 35 49 78 101 42 52 87 108 100 124 l23 29
-89 0 -90 0 -56 -75 c-31 -41 -58 -75 -60 -75 -2 0 -29 34 -61 75 l-57 75 -90
0 c-71 0 -88 -3 -81 -12z"/>
<path d="M1750 393 c37 -82 93 -201 123 -266 l56 -118 82 3 81 3 114 243 c62
134 116 252 119 263 6 18 1 19 -68 19 l-74 0 -84 -190 c-46 -104 -86 -190 -90
-190 -3 0 -44 86 -90 190 l-83 190 -77 0 -78 0 69 -147z"/>
<path d="M3030 275 l0 -265 235 0 235 0 0 65 0 65 -160 0 -160 0 0 200 0 200
-75 0 -75 0 0 -265z"/>
</g>
</svg>
